<svg xmlns="http://www.w3.org/2000/svg" xmlns:xlink="http://www.w3.org/1999/xlink" width="1080" zoomAndPan="magnify" viewBox="0 0 810 1012.49997" height="1350" preserveAspectRatio="xMidYMid meet" version="1.0"><defs><g/><clipPath id="b56cf7e171"><rect x="0" width="493" y="0" height="183"/></clipPath><clipPath id="be4aee1772"><path d="M 283.1875 299.527344 L 526.816406 299.527344 L 526.816406 561.148438 L 283.1875 561.148438 Z M 283.1875 299.527344 " clip-rule="nonzero"/></clipPath></defs><g transform="matrix(1, 0, 0, 1, 165, 580)"><g clip-path="url(#b56cf7e171)"><g fill="#333333" fill-opacity="1"><g transform="translate(1.522154, 136.998971)"><g><path d="M 77.328125 -61.65625 C 77.328125 -56.382812 76.117188 -51.566406 73.703125 -47.203125 C 71.285156 -42.847656 67.570312 -39.332031 62.5625 -36.65625 C 57.550781 -33.976562 51.332031 -32.640625 43.90625 -32.640625 L 30.1875 -32.640625 L 30.1875 0 L 8.03125 0 L 8.03125 -90.9375 L 43.90625 -90.9375 C 51.164062 -90.9375 57.296875 -89.679688 62.296875 -87.171875 C 67.304688 -84.671875 71.0625 -81.21875 73.5625 -76.8125 C 76.070312 -72.40625 77.328125 -67.351562 77.328125 -61.65625 Z M 42.234375 -50.265625 C 46.460938 -50.265625 49.613281 -51.253906 51.6875 -53.234375 C 53.757812 -55.222656 54.796875 -58.03125 54.796875 -61.65625 C 54.796875 -65.28125 53.757812 -68.085938 51.6875 -70.078125 C 49.613281 -72.066406 46.460938 -73.0625 42.234375 -73.0625 L 30.1875 -73.0625 L 30.1875 -50.265625 Z M 42.234375 -50.265625 "/></g></g></g><g fill="#333333" fill-opacity="1"><g transform="translate(95.306163, 136.998971)"><g><path d="M 86.015625 -90.9375 L 54.53125 -30.046875 L 54.53125 0 L 32.375 0 L 32.375 -30.046875 L 0.90625 -90.9375 L 26.03125 -90.9375 L 43.65625 -52.84375 L 61.140625 -90.9375 Z M 86.015625 -90.9375 "/></g></g></g><g fill="#333333" fill-opacity="1"><g transform="translate(195.178358, 136.998971)"><g><path d="M 73.4375 -90.9375 L 73.4375 -73.1875 L 49.34375 -73.1875 L 49.34375 0 L 27.203125 0 L 27.203125 -73.1875 L 3.109375 -73.1875 L 3.109375 -90.9375 Z M 73.4375 -90.9375 "/></g></g></g><g fill="#333333" fill-opacity="1"><g transform="translate(284.68768, 136.998971)"><g><path d="M 64.640625 -16.0625 L 30.703125 -16.0625 L 25.265625 0 L 2.078125 0 L 34.96875 -90.9375 L 60.625 -90.9375 L 93.515625 0 L 70.078125 0 Z M 58.9375 -33.15625 L 47.671875 -66.453125 L 36.53125 -33.15625 Z M 58.9375 -33.15625 "/></g></g></g><g fill="#333333" fill-opacity="1"><g transform="translate(393.109251, 136.998971)"><g><path d="M 63.078125 -46.625 C 68.347656 -45.507812 72.578125 -42.898438 75.765625 -38.796875 C 78.960938 -34.691406 80.5625 -30.003906 80.5625 -24.734375 C 80.5625 -17.140625 77.90625 -11.117188 72.59375 -6.671875 C 67.289062 -2.222656 59.890625 0 50.390625 0 L 8.03125 0 L 8.03125 -90.9375 L 48.96875 -90.9375 C 58.207031 -90.9375 65.4375 -88.816406 70.65625 -84.578125 C 75.882812 -80.347656 78.5 -74.609375 78.5 -67.359375 C 78.5 -62.003906 77.09375 -57.554688 74.28125 -54.015625 C 71.476562 -50.472656 67.742188 -48.007812 63.078125 -46.625 Z M 30.1875 -54.140625 L 44.6875 -54.140625 C 48.3125 -54.140625 51.09375 -54.9375 53.03125 -56.53125 C 54.976562 -58.132812 55.953125 -60.488281 55.953125 -63.59375 C 55.953125 -66.707031 54.976562 -69.082031 53.03125 -70.71875 C 51.09375 -72.363281 48.3125 -73.1875 44.6875 -73.1875 L 30.1875 -73.1875 Z M 46.5 -17.875 C 50.21875 -17.875 53.085938 -18.710938 55.109375 -20.390625 C 57.140625 -22.078125 58.15625 -24.519531 58.15625 -27.71875 C 58.15625 -30.914062 57.097656 -33.421875 54.984375 -35.234375 C 52.867188 -37.046875 49.957031 -37.953125 46.25 -37.953125 L 30.1875 -37.953125 L 30.1875 -17.875 Z M 46.5 -17.875 "/></g></g></g></g></g><g clip-path="url(#be4aee1772)"><path fill="#1f77b4" d="M 338.875 446.277344 C 338.875 437.738281 345.898438 431.242188 354.386719 431.242188 C 362.871094 431.242188 369.894531 437.738281 369.894531 446.277344 L 369.894531 545.925781 C 369.894531 554.464844 362.871094 561.433594 354.386719 561.433594 C 345.898438 561.433594 338.875 554.414062 338.875 545.925781 Z M 283.289062 472.839844 C 283.289062 464.300781 290.308594 457.332031 298.796875 457.332031 C 307.285156 457.332031 313.832031 464.351562 313.832031 472.839844 L 313.832031 545.980469 C 313.832031 554.519531 307.335938 561.488281 298.796875 561.488281 C 290.257812 561.488281 283.289062 554.464844 283.289062 545.980469 Z M 338.875 392.679688 C 338.875 401.21875 345.898438 408.1875 354.386719 408.1875 C 362.871094 408.1875 369.894531 401.167969 369.894531 392.679688 C 369.894531 392.15625 369.894531 392.15625 369.894531 392.15625 L 395.933594 379.632812 C 392.945312 376.648438 390.902344 373.136719 390.429688 368.632812 L 364.390625 381.152344 C 361.875 378.636719 358.367188 377.171875 354.386719 377.171875 C 345.898438 377.171875 338.875 384.191406 338.875 392.679688 Z M 394.988281 366.167969 C 394.988281 374.710938 402.007812 381.675781 410.496094 381.675781 C 418.984375 381.675781 426.003906 374.65625 426.003906 366.167969 C 426.003906 357.683594 418.984375 351.132812 410.496094 351.132812 C 402.007812 351.132812 394.988281 357.628906 394.988281 366.167969 Z M 298.796875 434.277344 C 306.8125 434.277344 313.832031 427.257812 313.832031 418.769531 L 313.832031 418.246094 L 339.871094 406.25 C 336.886719 403.261719 335.367188 399.230469 334.84375 395.246094 L 308.804688 407.246094 C 305.816406 404.730469 302.308594 403.261719 298.796875 403.261719 C 290.308594 403.210938 283.289062 410.230469 283.289062 418.71875 C 283.289062 427.207031 290.308594 434.277344 298.796875 434.277344 Z M 298.324219 330.070312 C 290.308594 330.070312 283.289062 323.050781 283.289062 314.5625 C 283.289062 306.074219 290.308594 299.527344 298.324219 299.527344 L 427.050781 299.527344 C 454.609375 299.527344 479.65625 310.527344 497.675781 328.550781 C 515.699219 346.574219 526.703125 371.617188 526.703125 399.175781 C 526.703125 426.210938 515.699219 451.253906 497.675781 469.277344 C 479.65625 487.300781 454.609375 498.300781 427.050781 498.300781 C 426.527344 498.300781 426.527344 498.300781 426.058594 498.300781 L 426.058594 545.875 C 426.058594 554.414062 419.035156 561.382812 410.550781 561.382812 C 402.0625 561.382812 395.042969 554.363281 395.042969 545.875 L 395.042969 420.132812 C 395.042969 411.59375 402.0625 404.625 410.550781 404.625 C 419.035156 404.625 426.058594 411.644531 426.058594 420.132812 L 426.058594 467.707031 C 426.582031 467.707031 426.582031 467.707031 427.050781 467.707031 C 446.070312 467.707031 463.621094 459.6875 475.621094 447.691406 C 488.140625 435.167969 496.15625 417.617188 496.15625 399.125 C 496.15625 380.105469 488.140625 362.554688 475.621094 350.554688 C 463.621094 338.035156 446.070312 330.019531 427.050781 330.019531 L 298.324219 330.019531 Z M 298.324219 330.070312 " fill-opacity="1" fill-rule="nonzero"/></g></svg>