<svg xmlns="http://www.w3.org/2000/svg" xmlns:xlink="http://www.w3.org/1999/xlink" width="1600" zoomAndPan="magnify" viewBox="0 0 1200 599.999999" height="800" preserveAspectRatio="xMidYMid meet" version="1.0"><defs><g/><clipPath id="754f60ea28"><rect x="0" width="421" y="0" height="157"/></clipPath><clipPath id="6457a50390"><rect x="0" width="745" y="0" height="53"/></clipPath><clipPath id="2d28016ff4"><path d="M 509.441406 89.328125 L 690.191406 89.328125 L 690.191406 284.328125 L 509.441406 284.328125 Z M 509.441406 89.328125 " clip-rule="nonzero"/></clipPath></defs><rect x="-120" width="1440" fill="#ffffff" y="-60" height="719.999999" fill-opacity="1"/><rect x="-120" width="1440" fill="#f5f5f5" y="-60" height="719.999999" fill-opacity="1"/><g transform="matrix(1, 0, 0, 1, 395, 288)"><g clip-path="url(#754f60ea28)"><g fill="#333333" fill-opacity="1"><g transform="translate(0.439662, 117.555565)"><g><path d="M 66.328125 -52.890625 C 66.328125 -48.367188 65.289062 -44.238281 63.21875 -40.5 C 61.144531 -36.757812 57.957031 -33.738281 53.65625 -31.4375 C 49.363281 -29.144531 44.035156 -28 37.671875 -28 L 25.890625 -28 L 25.890625 0 L 6.890625 0 L 6.890625 -78 L 37.671875 -78 C 43.890625 -78 49.144531 -76.921875 53.4375 -74.765625 C 57.738281 -72.617188 60.960938 -69.65625 63.109375 -65.875 C 65.253906 -62.101562 66.328125 -57.773438 66.328125 -52.890625 Z M 36.21875 -43.109375 C 39.851562 -43.109375 42.554688 -43.957031 44.328125 -45.65625 C 46.109375 -47.363281 47 -49.773438 47 -52.890625 C 47 -55.992188 46.109375 -58.398438 44.328125 -60.109375 C 42.554688 -61.816406 39.851562 -62.671875 36.21875 -62.671875 L 25.890625 -62.671875 L 25.890625 -43.109375 Z M 36.21875 -43.109375 "/></g></g></g><g fill="#333333" fill-opacity="1"><g transform="translate(80.884122, 117.555565)"><g><path d="M 73.78125 -78 L 46.78125 -25.78125 L 46.78125 0 L 27.78125 0 L 27.78125 -25.78125 L 0.78125 -78 L 22.328125 -78 L 37.4375 -45.328125 L 52.4375 -78 Z M 73.78125 -78 "/></g></g></g><g fill="#333333" fill-opacity="1"><g transform="translate(166.550799, 117.555565)"><g><path d="M 63 -78 L 63 -62.78125 L 42.328125 -62.78125 L 42.328125 0 L 23.328125 0 L 23.328125 -62.78125 L 2.671875 -62.78125 L 2.671875 -78 Z M 63 -78 "/></g></g></g><g fill="#333333" fill-opacity="1"><g transform="translate(243.32858, 117.555565)"><g><path d="M 55.4375 -13.78125 L 26.328125 -13.78125 L 21.671875 0 L 1.78125 0 L 30 -78 L 52 -78 L 80.21875 0 L 60.109375 0 Z M 50.5625 -28.4375 L 40.890625 -57 L 31.328125 -28.4375 Z M 50.5625 -28.4375 "/></g></g></g><g fill="#333333" fill-opacity="1"><g transform="translate(336.328589, 117.555565)"><g><path d="M 54.109375 -40 C 58.628906 -39.039062 62.257812 -36.800781 65 -33.28125 C 67.738281 -29.757812 69.109375 -25.738281 69.109375 -21.21875 C 69.109375 -14.695312 66.828125 -9.53125 62.265625 -5.71875 C 57.710938 -1.90625 51.363281 0 43.21875 0 L 6.890625 0 L 6.890625 -78 L 42 -78 C 49.925781 -78 56.128906 -76.179688 60.609375 -72.546875 C 65.085938 -68.921875 67.328125 -64 67.328125 -57.78125 C 67.328125 -53.1875 66.125 -49.367188 63.71875 -46.328125 C 61.3125 -43.296875 58.109375 -41.1875 54.109375 -40 Z M 25.890625 -46.4375 L 38.328125 -46.4375 C 41.441406 -46.4375 43.832031 -47.125 45.5 -48.5 C 47.164062 -49.875 48 -51.890625 48 -54.546875 C 48 -57.210938 47.164062 -59.25 45.5 -60.65625 C 43.832031 -62.070312 41.441406 -62.78125 38.328125 -62.78125 L 25.890625 -62.78125 Z M 39.890625 -15.328125 C 43.078125 -15.328125 45.539062 -16.050781 47.28125 -17.5 C 49.019531 -18.945312 49.890625 -21.039062 49.890625 -23.78125 C 49.890625 -26.519531 48.976562 -28.664062 47.15625 -30.21875 C 45.34375 -31.78125 42.847656 -32.5625 39.671875 -32.5625 L 25.890625 -32.5625 L 25.890625 -15.328125 Z M 39.890625 -15.328125 "/></g></g></g></g></g><g transform="matrix(1, 0, 0, 1, 233, 443)"><g clip-path="url(#6457a50390)"><g fill="#0d2634" fill-opacity="1"><g transform="translate(0.602417, 38.906125)"><g><path d="M 14.546875 0.265625 C 12.160156 0.265625 9.976562 -0.296875 8 -1.421875 C 6.019531 -2.546875 4.457031 -4.113281 3.3125 -6.125 C 2.164062 -8.132812 1.59375 -10.398438 1.59375 -12.921875 C 1.59375 -15.441406 2.164062 -17.707031 3.3125 -19.71875 C 4.457031 -21.726562 6.019531 -23.296875 8 -24.421875 C 9.976562 -25.546875 12.160156 -26.109375 14.546875 -26.109375 C 16.972656 -26.109375 19.171875 -25.546875 21.140625 -24.421875 C 23.117188 -23.296875 24.675781 -21.734375 25.8125 -19.734375 C 26.945312 -17.734375 27.515625 -15.460938 27.515625 -12.921875 C 27.515625 -10.378906 26.945312 -8.109375 25.8125 -6.109375 C 24.675781 -4.109375 23.117188 -2.546875 21.140625 -1.421875 C 19.171875 -0.296875 16.972656 0.265625 14.546875 0.265625 Z M 14.546875 -2.671875 C 16.347656 -2.671875 17.972656 -3.085938 19.421875 -3.921875 C 20.867188 -4.765625 22.003906 -5.960938 22.828125 -7.515625 C 23.648438 -9.066406 24.0625 -10.867188 24.0625 -12.921875 C 24.0625 -14.992188 23.648438 -16.800781 22.828125 -18.34375 C 22.003906 -19.882812 20.875 -21.078125 19.4375 -21.921875 C 18.007812 -22.765625 16.378906 -23.1875 14.546875 -23.1875 C 12.722656 -23.1875 11.09375 -22.765625 9.65625 -21.921875 C 8.226562 -21.078125 7.097656 -19.882812 6.265625 -18.34375 C 5.441406 -16.800781 5.03125 -14.992188 5.03125 -12.921875 C 5.03125 -10.867188 5.441406 -9.066406 6.265625 -7.515625 C 7.097656 -5.960938 8.234375 -4.765625 9.671875 -3.921875 C 11.117188 -3.085938 12.742188 -2.671875 14.546875 -2.671875 Z M 14.546875 -2.671875 "/></g></g></g><g fill="#0d2634" fill-opacity="1"><g transform="translate(40.820132, 38.906125)"><g><path d="M 20.109375 -18.25 C 20.109375 -16.101562 19.375 -14.320312 17.90625 -12.90625 C 16.4375 -11.488281 14.195312 -10.78125 11.1875 -10.78125 L 6.21875 -10.78125 L 6.21875 0 L 2.84375 0 L 2.84375 -25.8125 L 11.1875 -25.8125 C 14.09375 -25.8125 16.304688 -25.109375 17.828125 -23.703125 C 19.347656 -22.296875 20.109375 -20.476562 20.109375 -18.25 Z M 11.1875 -13.546875 C 13.0625 -13.546875 14.441406 -13.953125 15.328125 -14.765625 C 16.210938 -15.585938 16.65625 -16.75 16.65625 -18.25 C 16.65625 -21.4375 14.832031 -23.03125 11.1875 -23.03125 L 6.21875 -23.03125 L 6.21875 -13.546875 Z M 11.1875 -13.546875 "/></g></g></g><g fill="#0d2634" fill-opacity="1"><g transform="translate(73.372366, 38.906125)"><g><path d="M 6.21875 -23.078125 L 6.21875 -14.4375 L 15.625 -14.4375 L 15.625 -11.671875 L 6.21875 -11.671875 L 6.21875 -2.78125 L 16.734375 -2.78125 L 16.734375 0 L 2.84375 0 L 2.84375 -25.84375 L 16.734375 -25.84375 L 16.734375 -23.078125 Z M 6.21875 -23.078125 "/></g></g></g><g fill="#0d2634" fill-opacity="1"><g transform="translate(103.480533, 38.906125)"><g><path d="M 23.140625 0 L 19.78125 0 L 6.21875 -20.546875 L 6.21875 0 L 2.84375 0 L 2.84375 -25.84375 L 6.21875 -25.84375 L 19.78125 -5.328125 L 19.78125 -25.84375 L 23.140625 -25.84375 Z M 23.140625 0 "/></g></g></g><g fill="#0d2634" fill-opacity="1"><g transform="translate(140.624654, 38.906125)"><g/></g></g><g fill="#0d2634" fill-opacity="1"><g transform="translate(161.62312, 38.906125)"><g><path d="M 11.03125 0.265625 C 9.332031 0.265625 7.804688 -0.0351562 6.453125 -0.640625 C 5.109375 -1.253906 4.050781 -2.097656 3.28125 -3.171875 C 2.519531 -4.242188 2.128906 -5.484375 2.109375 -6.890625 L 5.703125 -6.890625 C 5.828125 -5.679688 6.328125 -4.660156 7.203125 -3.828125 C 8.078125 -3.003906 9.351562 -2.59375 11.03125 -2.59375 C 12.632812 -2.59375 13.898438 -2.992188 14.828125 -3.796875 C 15.753906 -4.597656 16.21875 -5.628906 16.21875 -6.890625 C 16.21875 -7.878906 15.945312 -8.679688 15.40625 -9.296875 C 14.863281 -9.910156 14.179688 -10.378906 13.359375 -10.703125 C 12.546875 -11.023438 11.453125 -11.367188 10.078125 -11.734375 C 8.367188 -12.179688 7 -12.625 5.96875 -13.0625 C 4.945312 -13.507812 4.070312 -14.207031 3.34375 -15.15625 C 2.625 -16.113281 2.265625 -17.394531 2.265625 -19 C 2.265625 -20.40625 2.617188 -21.648438 3.328125 -22.734375 C 4.046875 -23.816406 5.050781 -24.65625 6.34375 -25.25 C 7.644531 -25.84375 9.132812 -26.140625 10.8125 -26.140625 C 13.226562 -26.140625 15.207031 -25.535156 16.75 -24.328125 C 18.300781 -23.117188 19.175781 -21.515625 19.375 -19.515625 L 15.671875 -19.515625 C 15.546875 -20.503906 15.023438 -21.375 14.109375 -22.125 C 13.191406 -22.875 11.984375 -23.25 10.484375 -23.25 C 9.078125 -23.25 7.925781 -22.882812 7.03125 -22.15625 C 6.144531 -21.4375 5.703125 -20.421875 5.703125 -19.109375 C 5.703125 -18.171875 5.96875 -17.40625 6.5 -16.8125 C 7.03125 -16.21875 7.679688 -15.765625 8.453125 -15.453125 C 9.234375 -15.148438 10.328125 -14.800781 11.734375 -14.40625 C 13.441406 -13.9375 14.8125 -13.472656 15.84375 -13.015625 C 16.882812 -12.554688 17.773438 -11.851562 18.515625 -10.90625 C 19.253906 -9.957031 19.625 -8.664062 19.625 -7.03125 C 19.625 -5.769531 19.289062 -4.582031 18.625 -3.46875 C 17.957031 -2.363281 16.96875 -1.460938 15.65625 -0.765625 C 14.351562 -0.078125 12.8125 0.265625 11.03125 0.265625 Z M 11.03125 0.265625 "/></g></g></g><g fill="#0d2634" fill-opacity="1"><g transform="translate(194.471595, 38.906125)"><g><path d="M 18.734375 -25.8125 L 18.734375 -23.078125 L 11.703125 -23.078125 L 11.703125 0 L 8.328125 0 L 8.328125 -23.078125 L 1.265625 -23.078125 L 1.265625 -25.8125 Z M 18.734375 -25.8125 "/></g></g></g><g fill="#0d2634" fill-opacity="1"><g transform="translate(225.616647, 38.906125)"><g><path d="M 18.109375 -5.734375 L 6.84375 -5.734375 L 4.78125 0 L 1.21875 0 L 10.546875 -25.65625 L 14.4375 -25.65625 L 23.734375 0 L 20.1875 0 Z M 17.140625 -8.484375 L 12.484375 -21.515625 L 7.8125 -8.484375 Z M 17.140625 -8.484375 "/></g></g></g><g fill="#0d2634" fill-opacity="1"><g transform="translate(261.686863, 38.906125)"><g><path d="M 18.734375 -25.8125 L 18.734375 -23.078125 L 11.703125 -23.078125 L 11.703125 0 L 8.328125 0 L 8.328125 -23.078125 L 1.265625 -23.078125 L 1.265625 -25.8125 Z M 18.734375 -25.8125 "/></g></g></g><g fill="#0d2634" fill-opacity="1"><g transform="translate(292.831881, 38.906125)"><g><path d="M 6.21875 -25.8125 L 6.21875 0 L 2.84375 0 L 2.84375 -25.8125 Z M 6.21875 -25.8125 "/></g></g></g><g fill="#0d2634" fill-opacity="1"><g transform="translate(313.052691, 38.906125)"><g><path d="M 11.03125 0.265625 C 9.332031 0.265625 7.804688 -0.0351562 6.453125 -0.640625 C 5.109375 -1.253906 4.050781 -2.097656 3.28125 -3.171875 C 2.519531 -4.242188 2.128906 -5.484375 2.109375 -6.890625 L 5.703125 -6.890625 C 5.828125 -5.679688 6.328125 -4.660156 7.203125 -3.828125 C 8.078125 -3.003906 9.351562 -2.59375 11.03125 -2.59375 C 12.632812 -2.59375 13.898438 -2.992188 14.828125 -3.796875 C 15.753906 -4.597656 16.21875 -5.628906 16.21875 -6.890625 C 16.21875 -7.878906 15.945312 -8.679688 15.40625 -9.296875 C 14.863281 -9.910156 14.179688 -10.378906 13.359375 -10.703125 C 12.546875 -11.023438 11.453125 -11.367188 10.078125 -11.734375 C 8.367188 -12.179688 7 -12.625 5.96875 -13.0625 C 4.945312 -13.507812 4.070312 -14.207031 3.34375 -15.15625 C 2.625 -16.113281 2.265625 -17.394531 2.265625 -19 C 2.265625 -20.40625 2.617188 -21.648438 3.328125 -22.734375 C 4.046875 -23.816406 5.050781 -24.65625 6.34375 -25.25 C 7.644531 -25.84375 9.132812 -26.140625 10.8125 -26.140625 C 13.226562 -26.140625 15.207031 -25.535156 16.75 -24.328125 C 18.300781 -23.117188 19.175781 -21.515625 19.375 -19.515625 L 15.671875 -19.515625 C 15.546875 -20.503906 15.023438 -21.375 14.109375 -22.125 C 13.191406 -22.875 11.984375 -23.25 10.484375 -23.25 C 9.078125 -23.25 7.925781 -22.882812 7.03125 -22.15625 C 6.144531 -21.4375 5.703125 -20.421875 5.703125 -19.109375 C 5.703125 -18.171875 5.96875 -17.40625 6.5 -16.8125 C 7.03125 -16.21875 7.679688 -15.765625 8.453125 -15.453125 C 9.234375 -15.148438 10.328125 -14.800781 11.734375 -14.40625 C 13.441406 -13.9375 14.8125 -13.472656 15.84375 -13.015625 C 16.882812 -12.554688 17.773438 -11.851562 18.515625 -10.90625 C 19.253906 -9.957031 19.625 -8.664062 19.625 -7.03125 C 19.625 -5.769531 19.289062 -4.582031 18.625 -3.46875 C 17.957031 -2.363281 16.96875 -1.460938 15.65625 -0.765625 C 14.351562 -0.078125 12.8125 0.265625 11.03125 0.265625 Z M 11.03125 0.265625 "/></g></g></g><g fill="#0d2634" fill-opacity="1"><g transform="translate(345.9012, 38.906125)"><g><path d="M 18.734375 -25.8125 L 18.734375 -23.078125 L 11.703125 -23.078125 L 11.703125 0 L 8.328125 0 L 8.328125 -23.078125 L 1.265625 -23.078125 L 1.265625 -25.8125 Z M 18.734375 -25.8125 "/></g></g></g><g fill="#0d2634" fill-opacity="1"><g transform="translate(377.046218, 38.906125)"><g><path d="M 6.21875 -25.8125 L 6.21875 0 L 2.84375 0 L 2.84375 -25.8125 Z M 6.21875 -25.8125 "/></g></g></g><g fill="#0d2634" fill-opacity="1"><g transform="translate(397.267029, 38.906125)"><g><path d="M 1.59375 -12.921875 C 1.59375 -15.441406 2.160156 -17.707031 3.296875 -19.71875 C 4.429688 -21.726562 5.976562 -23.300781 7.9375 -24.4375 C 9.90625 -25.570312 12.085938 -26.140625 14.484375 -26.140625 C 17.296875 -26.140625 19.75 -25.460938 21.84375 -24.109375 C 23.945312 -22.753906 25.476562 -20.828125 26.4375 -18.328125 L 22.40625 -18.328125 C 21.6875 -19.878906 20.65625 -21.078125 19.3125 -21.921875 C 17.96875 -22.765625 16.359375 -23.1875 14.484375 -23.1875 C 12.679688 -23.1875 11.0625 -22.765625 9.625 -21.921875 C 8.195312 -21.078125 7.070312 -19.882812 6.25 -18.34375 C 5.4375 -16.800781 5.03125 -14.992188 5.03125 -12.921875 C 5.03125 -10.867188 5.4375 -9.070312 6.25 -7.53125 C 7.070312 -5.988281 8.195312 -4.796875 9.625 -3.953125 C 11.0625 -3.117188 12.679688 -2.703125 14.484375 -2.703125 C 16.359375 -2.703125 17.96875 -3.113281 19.3125 -3.9375 C 20.65625 -4.769531 21.6875 -5.960938 22.40625 -7.515625 L 26.4375 -7.515625 C 25.476562 -5.046875 23.945312 -3.140625 21.84375 -1.796875 C 19.75 -0.453125 17.296875 0.21875 14.484375 0.21875 C 12.085938 0.21875 9.90625 -0.335938 7.9375 -1.453125 C 5.976562 -2.578125 4.429688 -4.140625 3.296875 -6.140625 C 2.160156 -8.140625 1.59375 -10.398438 1.59375 -12.921875 Z M 1.59375 -12.921875 "/></g></g></g><g fill="#0d2634" fill-opacity="1"><g transform="translate(436.966327, 38.906125)"><g><path d="M 18.109375 -5.734375 L 6.84375 -5.734375 L 4.78125 0 L 1.21875 0 L 10.546875 -25.65625 L 14.4375 -25.65625 L 23.734375 0 L 20.1875 0 Z M 17.140625 -8.484375 L 12.484375 -21.515625 L 7.8125 -8.484375 Z M 17.140625 -8.484375 "/></g></g></g><g fill="#0d2634" fill-opacity="1"><g transform="translate(473.036543, 38.906125)"><g><path d="M 6.21875 -2.734375 L 15.25 -2.734375 L 15.25 0 L 2.84375 0 L 2.84375 -25.8125 L 6.21875 -25.8125 Z M 6.21875 -2.734375 "/></g></g></g><g fill="#0d2634" fill-opacity="1"><g transform="translate(500.145171, 38.906125)"><g/></g></g><g fill="#0d2634" fill-opacity="1"><g transform="translate(521.143637, 38.906125)"><g><path d="M 18.734375 -25.8125 L 18.734375 -23.078125 L 11.703125 -23.078125 L 11.703125 0 L 8.328125 0 L 8.328125 -23.078125 L 1.265625 -23.078125 L 1.265625 -25.8125 Z M 18.734375 -25.8125 "/></g></g></g><g fill="#0d2634" fill-opacity="1"><g transform="translate(552.288689, 38.906125)"><g><path d="M 14.546875 0.265625 C 12.160156 0.265625 9.976562 -0.296875 8 -1.421875 C 6.019531 -2.546875 4.457031 -4.113281 3.3125 -6.125 C 2.164062 -8.132812 1.59375 -10.398438 1.59375 -12.921875 C 1.59375 -15.441406 2.164062 -17.707031 3.3125 -19.71875 C 4.457031 -21.726562 6.019531 -23.296875 8 -24.421875 C 9.976562 -25.546875 12.160156 -26.109375 14.546875 -26.109375 C 16.972656 -26.109375 19.171875 -25.546875 21.140625 -24.421875 C 23.117188 -23.296875 24.675781 -21.734375 25.8125 -19.734375 C 26.945312 -17.734375 27.515625 -15.460938 27.515625 -12.921875 C 27.515625 -10.378906 26.945312 -8.109375 25.8125 -6.109375 C 24.675781 -4.109375 23.117188 -2.546875 21.140625 -1.421875 C 19.171875 -0.296875 16.972656 0.265625 14.546875 0.265625 Z M 14.546875 -2.671875 C 16.347656 -2.671875 17.972656 -3.085938 19.421875 -3.921875 C 20.867188 -4.765625 22.003906 -5.960938 22.828125 -7.515625 C 23.648438 -9.066406 24.0625 -10.867188 24.0625 -12.921875 C 24.0625 -14.992188 23.648438 -16.800781 22.828125 -18.34375 C 22.003906 -19.882812 20.875 -21.078125 19.4375 -21.921875 C 18.007812 -22.765625 16.378906 -23.1875 14.546875 -23.1875 C 12.722656 -23.1875 11.09375 -22.765625 9.65625 -21.921875 C 8.226562 -21.078125 7.097656 -19.882812 6.265625 -18.34375 C 5.441406 -16.800781 5.03125 -14.992188 5.03125 -12.921875 C 5.03125 -10.867188 5.441406 -9.066406 6.265625 -7.515625 C 7.097656 -5.960938 8.234375 -4.765625 9.671875 -3.921875 C 11.117188 -3.085938 12.742188 -2.671875 14.546875 -2.671875 Z M 14.546875 -2.671875 "/></g></g></g><g fill="#0d2634" fill-opacity="1"><g transform="translate(592.506413, 38.906125)"><g><path d="M 14.546875 0.265625 C 12.160156 0.265625 9.976562 -0.296875 8 -1.421875 C 6.019531 -2.546875 4.457031 -4.113281 3.3125 -6.125 C 2.164062 -8.132812 1.59375 -10.398438 1.59375 -12.921875 C 1.59375 -15.441406 2.164062 -17.707031 3.3125 -19.71875 C 4.457031 -21.726562 6.019531 -23.296875 8 -24.421875 C 9.976562 -25.546875 12.160156 -26.109375 14.546875 -26.109375 C 16.972656 -26.109375 19.171875 -25.546875 21.140625 -24.421875 C 23.117188 -23.296875 24.675781 -21.734375 25.8125 -19.734375 C 26.945312 -17.734375 27.515625 -15.460938 27.515625 -12.921875 C 27.515625 -10.378906 26.945312 -8.109375 25.8125 -6.109375 C 24.675781 -4.109375 23.117188 -2.546875 21.140625 -1.421875 C 19.171875 -0.296875 16.972656 0.265625 14.546875 0.265625 Z M 14.546875 -2.671875 C 16.347656 -2.671875 17.972656 -3.085938 19.421875 -3.921875 C 20.867188 -4.765625 22.003906 -5.960938 22.828125 -7.515625 C 23.648438 -9.066406 24.0625 -10.867188 24.0625 -12.921875 C 24.0625 -14.992188 23.648438 -16.800781 22.828125 -18.34375 C 22.003906 -19.882812 20.875 -21.078125 19.4375 -21.921875 C 18.007812 -22.765625 16.378906 -23.1875 14.546875 -23.1875 C 12.722656 -23.1875 11.09375 -22.765625 9.65625 -21.921875 C 8.226562 -21.078125 7.097656 -19.882812 6.265625 -18.34375 C 5.441406 -16.800781 5.03125 -14.992188 5.03125 -12.921875 C 5.03125 -10.867188 5.441406 -9.066406 6.265625 -7.515625 C 7.097656 -5.960938 8.234375 -4.765625 9.671875 -3.921875 C 11.117188 -3.085938 12.742188 -2.671875 14.546875 -2.671875 Z M 14.546875 -2.671875 "/></g></g></g><g fill="#0d2634" fill-opacity="1"><g transform="translate(632.724103, 38.906125)"><g><path d="M 6.21875 -2.734375 L 15.25 -2.734375 L 15.25 0 L 2.84375 0 L 2.84375 -25.8125 L 6.21875 -25.8125 Z M 6.21875 -2.734375 "/></g></g></g><g fill="#0d2634" fill-opacity="1"><g transform="translate(659.83273, 38.906125)"><g><path d="M 16.84375 0 L 6.21875 -11.78125 L 6.21875 0 L 2.84375 0 L 2.84375 -25.8125 L 6.21875 -25.8125 L 6.21875 -13.84375 L 16.890625 -25.8125 L 21.140625 -25.8125 L 9.4375 -12.890625 L 21.25 0 Z M 16.84375 0 "/></g></g></g><g fill="#0d2634" fill-opacity="1"><g transform="translate(693.125576, 38.906125)"><g><path d="M 6.21875 -25.8125 L 6.21875 0 L 2.84375 0 L 2.84375 -25.8125 Z M 6.21875 -25.8125 "/></g></g></g><g fill="#0d2634" fill-opacity="1"><g transform="translate(713.346386, 38.906125)"><g><path d="M 18.734375 -25.8125 L 18.734375 -23.078125 L 11.703125 -23.078125 L 11.703125 0 L 8.328125 0 L 8.328125 -23.078125 L 1.265625 -23.078125 L 1.265625 -25.8125 Z M 18.734375 -25.8125 "/></g></g></g></g></g><g clip-path="url(#2d28016ff4)"><path fill="#1f77b4" d="M 550.84375 198.421875 C 550.84375 192.074219 556.0625 187.246094 562.371094 187.246094 C 568.683594 187.246094 573.902344 192.074219 573.902344 198.421875 L 573.902344 272.503906 C 573.902344 278.851562 568.683594 284.03125 562.371094 284.03125 C 556.0625 284.03125 550.84375 278.8125 550.84375 272.503906 Z M 509.519531 218.171875 C 509.519531 211.820312 514.738281 206.640625 521.046875 206.640625 C 527.359375 206.640625 532.226562 211.859375 532.226562 218.171875 L 532.226562 272.542969 C 532.226562 278.890625 527.398438 284.070312 521.046875 284.070312 C 514.699219 284.070312 509.519531 278.851562 509.519531 272.542969 Z M 550.84375 158.578125 C 550.84375 164.929688 556.0625 170.109375 562.371094 170.109375 C 568.683594 170.109375 573.902344 164.890625 573.902344 158.578125 C 573.902344 158.191406 573.902344 158.191406 573.902344 158.191406 L 593.257812 148.882812 C 591.039062 146.660156 589.519531 144.050781 589.167969 140.703125 L 569.8125 150.011719 C 567.941406 148.140625 565.332031 147.050781 562.371094 147.050781 C 556.0625 147.050781 550.84375 152.269531 550.84375 158.578125 Z M 592.558594 138.871094 C 592.558594 145.21875 597.777344 150.398438 604.085938 150.398438 C 610.394531 150.398438 615.617188 145.179688 615.617188 138.871094 C 615.617188 132.5625 610.394531 127.691406 604.085938 127.691406 C 597.777344 127.691406 592.558594 132.523438 592.558594 138.871094 Z M 521.046875 189.503906 C 527.007812 189.503906 532.226562 184.285156 532.226562 177.976562 L 532.226562 177.585938 L 551.585938 168.667969 C 549.363281 166.445312 548.234375 163.449219 547.84375 160.488281 L 528.488281 169.40625 C 526.269531 167.539062 523.65625 166.445312 521.046875 166.445312 C 514.738281 166.40625 509.519531 171.628906 509.519531 177.9375 C 509.519531 184.246094 514.738281 189.503906 521.046875 189.503906 Z M 520.699219 112.035156 C 514.738281 112.035156 509.519531 106.816406 509.519531 100.507812 C 509.519531 94.199219 514.738281 89.328125 520.699219 89.328125 L 616.394531 89.328125 C 636.882812 89.328125 655.5 97.507812 668.898438 110.90625 C 682.296875 124.304688 690.472656 142.921875 690.472656 163.410156 C 690.472656 183.507812 682.296875 202.125 668.898438 215.523438 C 655.5 228.921875 636.882812 237.097656 616.394531 237.097656 C 616.003906 237.097656 616.003906 237.097656 615.65625 237.097656 L 615.65625 272.464844 C 615.65625 278.8125 610.433594 283.992188 604.125 283.992188 C 597.816406 283.992188 592.597656 278.773438 592.597656 272.464844 L 592.597656 178.988281 C 592.597656 172.640625 597.816406 167.460938 604.125 167.460938 C 610.433594 167.460938 615.65625 172.679688 615.65625 178.988281 L 615.65625 214.355469 C 616.042969 214.355469 616.042969 214.355469 616.394531 214.355469 C 630.53125 214.355469 643.582031 208.394531 652.5 199.476562 C 661.808594 190.167969 667.765625 177.117188 667.765625 163.371094 C 667.765625 149.230469 661.808594 136.183594 652.5 127.265625 C 643.582031 117.957031 630.53125 111.996094 616.394531 111.996094 L 520.699219 111.996094 Z M 520.699219 112.035156 " fill-opacity="1" fill-rule="nonzero"/></g></svg>