<svg xmlns="http://www.w3.org/2000/svg" xmlns:xlink="http://www.w3.org/1999/xlink" width="500" zoomAndPan="magnify" viewBox="0 0 375 374.999991" height="500" preserveAspectRatio="xMidYMid meet" version="1.0"><defs><g/><clipPath id="043a49d523"><path d="M 141.757812 91.53125 L 233.257812 91.53125 L 233.257812 189.78125 L 141.757812 189.78125 Z M 141.757812 91.53125 " clip-rule="nonzero"/></clipPath></defs><rect x="-37.5" width="450" fill="#ffffff" y="-37.499999" height="449.999989" fill-opacity="1"/><rect x="-37.5" width="450" fill="#f5f5f5" y="-37.499999" height="449.999989" fill-opacity="1"/><g fill="#333333" fill-opacity="1"><g transform="translate(77.039062, 246.906224)"><g><path d="M 35.8125 -28.5625 C 35.8125 -26.125 35.25 -23.894531 34.125 -21.875 C 33.007812 -19.851562 31.289062 -18.222656 28.96875 -16.984375 C 26.65625 -15.742188 23.78125 -15.125 20.34375 -15.125 L 13.984375 -15.125 L 13.984375 0 L 3.71875 0 L 3.71875 -42.125 L 20.34375 -42.125 C 23.695312 -42.125 26.535156 -41.539062 28.859375 -40.375 C 31.179688 -39.21875 32.921875 -37.617188 34.078125 -35.578125 C 35.234375 -33.535156 35.8125 -31.195312 35.8125 -28.5625 Z M 19.5625 -23.28125 C 21.519531 -23.28125 22.976562 -23.738281 23.9375 -24.65625 C 24.894531 -25.582031 25.375 -26.882812 25.375 -28.5625 C 25.375 -30.238281 24.894531 -31.535156 23.9375 -32.453125 C 22.976562 -33.378906 21.519531 -33.84375 19.5625 -33.84375 L 13.984375 -33.84375 L 13.984375 -23.28125 Z M 19.5625 -23.28125 "/></g></g></g><g fill="#333333" fill-opacity="1"><g transform="translate(120.479023, 246.906224)"><g><path d="M 39.84375 -42.125 L 25.265625 -13.921875 L 25.265625 0 L 15 0 L 15 -13.921875 L 0.421875 -42.125 L 12.0625 -42.125 L 20.21875 -24.484375 L 28.3125 -42.125 Z M 39.84375 -42.125 "/></g></g></g><g fill="#333333" fill-opacity="1"><g transform="translate(166.73898, 246.906224)"><g><path d="M 34.015625 -42.125 L 34.015625 -33.90625 L 22.859375 -33.90625 L 22.859375 0 L 12.59375 0 L 12.59375 -33.90625 L 1.4375 -33.90625 L 1.4375 -42.125 Z M 34.015625 -42.125 "/></g></g></g><g fill="#333333" fill-opacity="1"><g transform="translate(208.198942, 246.906224)"><g><path d="M 29.9375 -7.4375 L 14.21875 -7.4375 L 11.703125 0 L 0.953125 0 L 16.203125 -42.125 L 28.078125 -42.125 L 43.3125 0 L 32.453125 0 Z M 27.296875 -15.359375 L 22.078125 -30.78125 L 16.921875 -15.359375 Z M 27.296875 -15.359375 "/></g></g></g><g fill="#333333" fill-opacity="1"><g transform="translate(258.418899, 246.906224)"><g><path d="M 29.21875 -21.59375 C 31.65625 -21.070312 33.613281 -19.863281 35.09375 -17.96875 C 36.570312 -16.070312 37.3125 -13.898438 37.3125 -11.453125 C 37.3125 -7.941406 36.082031 -5.15625 33.625 -3.09375 C 31.164062 -1.03125 27.738281 0 23.34375 0 L 3.71875 0 L 3.71875 -42.125 L 22.6875 -42.125 C 26.957031 -42.125 30.300781 -41.140625 32.71875 -39.171875 C 35.144531 -37.210938 36.359375 -34.554688 36.359375 -31.203125 C 36.359375 -28.722656 35.707031 -26.660156 34.40625 -25.015625 C 33.101562 -23.378906 31.375 -22.238281 29.21875 -21.59375 Z M 13.984375 -25.078125 L 20.703125 -25.078125 C 22.378906 -25.078125 23.664062 -25.445312 24.5625 -26.1875 C 25.46875 -26.925781 25.921875 -28.015625 25.921875 -29.453125 C 25.921875 -30.898438 25.46875 -32.003906 24.5625 -32.765625 C 23.664062 -33.523438 22.378906 -33.90625 20.703125 -33.90625 L 13.984375 -33.90625 Z M 21.546875 -8.28125 C 23.265625 -8.28125 24.59375 -8.671875 25.53125 -9.453125 C 26.46875 -10.234375 26.9375 -11.363281 26.9375 -12.84375 C 26.9375 -14.320312 26.445312 -15.476562 25.46875 -16.3125 C 24.488281 -17.15625 23.140625 -17.578125 21.421875 -17.578125 L 13.984375 -17.578125 L 13.984375 -8.28125 Z M 21.546875 -8.28125 "/></g></g></g><g clip-path="url(#043a49d523)"><path fill="#1f77b4" d="M 162.667969 146.636719 C 162.667969 143.429688 165.300781 140.992188 168.488281 140.992188 C 171.675781 140.992188 174.3125 143.429688 174.3125 146.636719 L 174.3125 184.054688 C 174.3125 187.261719 171.675781 189.878906 168.488281 189.878906 C 165.300781 189.878906 162.667969 187.242188 162.667969 184.054688 Z M 141.792969 156.613281 C 141.792969 153.40625 144.429688 150.789062 147.617188 150.789062 C 150.804688 150.789062 153.261719 153.425781 153.261719 156.613281 L 153.261719 184.074219 C 153.261719 187.28125 150.824219 189.898438 147.617188 189.898438 C 144.410156 189.898438 141.792969 187.261719 141.792969 184.074219 Z M 162.667969 126.511719 C 162.667969 129.71875 165.300781 132.335938 168.488281 132.335938 C 171.675781 132.335938 174.3125 129.699219 174.3125 126.511719 C 174.3125 126.316406 174.3125 126.316406 174.3125 126.316406 L 184.089844 121.613281 C 182.96875 120.492188 182.203125 119.171875 182.023438 117.480469 L 172.246094 122.183594 C 171.304688 121.238281 169.984375 120.6875 168.488281 120.6875 C 165.300781 120.6875 162.667969 123.324219 162.667969 126.511719 Z M 183.738281 116.554688 C 183.738281 119.761719 186.371094 122.378906 189.558594 122.378906 C 192.746094 122.378906 195.382812 119.742188 195.382812 116.554688 C 195.382812 113.371094 192.746094 110.910156 189.558594 110.910156 C 186.371094 110.910156 183.738281 113.351562 183.738281 116.554688 Z M 147.617188 142.132812 C 150.625 142.132812 153.261719 139.496094 153.261719 136.308594 L 153.261719 136.113281 L 163.039062 131.605469 C 161.917969 130.484375 161.347656 128.96875 161.152344 127.476562 L 151.375 131.980469 C 150.253906 131.035156 148.933594 130.484375 147.617188 130.484375 C 144.429688 130.464844 141.792969 133.101562 141.792969 136.289062 C 141.792969 139.476562 144.429688 142.132812 147.617188 142.132812 Z M 147.4375 103 C 144.429688 103 141.792969 100.367188 141.792969 97.179688 C 141.792969 93.992188 144.429688 91.53125 147.4375 91.53125 L 195.777344 91.53125 C 206.125 91.53125 215.527344 95.664062 222.296875 102.429688 C 229.0625 109.199219 233.195312 118.601562 233.195312 128.949219 C 233.195312 139.101562 229.0625 148.507812 222.296875 155.273438 C 215.527344 162.042969 206.125 166.171875 195.777344 166.171875 C 195.578125 166.171875 195.578125 166.171875 195.402344 166.171875 L 195.402344 184.035156 C 195.402344 187.242188 192.765625 189.859375 189.578125 189.859375 C 186.390625 189.859375 183.757812 187.222656 183.757812 184.035156 L 183.757812 136.820312 C 183.757812 133.613281 186.390625 130.996094 189.578125 130.996094 C 192.765625 130.996094 195.402344 133.632812 195.402344 136.820312 L 195.402344 154.683594 C 195.601562 154.683594 195.601562 154.683594 195.777344 154.683594 C 202.917969 154.683594 209.507812 151.671875 214.015625 147.167969 C 218.714844 142.464844 221.726562 135.875 221.726562 128.929688 C 221.726562 121.789062 218.714844 115.199219 214.015625 110.695312 C 209.507812 105.992188 202.917969 102.980469 195.777344 102.980469 L 147.4375 102.980469 Z M 147.4375 103 " fill-opacity="1" fill-rule="nonzero"/></g></svg>