<svg xmlns="http://www.w3.org/2000/svg" xmlns:xlink="http://www.w3.org/1999/xlink" width="1920" zoomAndPan="magnify" viewBox="0 0 1440 809.999993" height="1080" preserveAspectRatio="xMidYMid meet" version="1.0"><defs><g/><clipPath id="86def2aaaa"><path d="M 606.335938 141.816406 L 833.585938 141.816406 L 833.585938 386.316406 L 606.335938 386.316406 Z M 606.335938 141.816406 " clip-rule="nonzero"/></clipPath></defs><rect x="-144" width="1728" fill="#ffffff" y="-80.999999" height="971.999992" fill-opacity="1"/><rect x="-144" width="1728" fill="#f5f5f5" y="-80.999999" height="971.999992" fill-opacity="1"/><g fill="#333333" fill-opacity="1"><g transform="translate(443.843567, 547.499992)"><g><path d="M 89.546875 -71.40625 C 89.546875 -65.300781 88.144531 -59.722656 85.34375 -54.671875 C 82.550781 -49.617188 78.253906 -45.539062 72.453125 -42.4375 C 66.648438 -39.34375 59.445312 -37.796875 50.84375 -37.796875 L 34.953125 -37.796875 L 34.953125 0 L 9.296875 0 L 9.296875 -105.296875 L 50.84375 -105.296875 C 59.25 -105.296875 66.347656 -103.84375 72.140625 -100.9375 C 77.941406 -98.039062 82.289062 -94.039062 85.1875 -88.9375 C 88.09375 -83.84375 89.546875 -78 89.546875 -71.40625 Z M 48.90625 -58.203125 C 53.800781 -58.203125 57.445312 -59.347656 59.84375 -61.640625 C 62.25 -63.941406 63.453125 -67.195312 63.453125 -71.40625 C 63.453125 -75.601562 62.25 -78.847656 59.84375 -81.140625 C 57.445312 -83.441406 53.800781 -84.59375 48.90625 -84.59375 L 34.953125 -84.59375 L 34.953125 -58.203125 Z M 48.90625 -58.203125 "/></g></g></g><g fill="#333333" fill-opacity="1"><g transform="translate(552.443587, 547.499992)"><g><path d="M 99.59375 -105.296875 L 63.15625 -34.796875 L 63.15625 0 L 37.5 0 L 37.5 -34.796875 L 1.046875 -105.296875 L 30.15625 -105.296875 L 50.546875 -61.203125 L 70.796875 -105.296875 Z M 99.59375 -105.296875 "/></g></g></g><g fill="#333333" fill-opacity="1"><g transform="translate(668.093602, 547.499992)"><g><path d="M 85.046875 -105.296875 L 85.046875 -84.75 L 57.15625 -84.75 L 57.15625 0 L 31.5 0 L 31.5 -84.75 L 3.59375 -84.75 L 3.59375 -105.296875 Z M 85.046875 -105.296875 "/></g></g></g><g fill="#333333" fill-opacity="1"><g transform="translate(771.743606, 547.499992)"><g><path d="M 74.84375 -18.59375 L 35.546875 -18.59375 L 29.25 0 L 2.40625 0 L 40.5 -105.296875 L 70.203125 -105.296875 L 108.296875 0 L 81.15625 0 Z M 68.25 -38.40625 L 55.203125 -76.953125 L 42.296875 -38.40625 Z M 68.25 -38.40625 "/></g></g></g><g fill="#333333" fill-opacity="1"><g transform="translate(897.293617, 547.499992)"><g><path d="M 73.046875 -54 C 79.148438 -52.695312 84.050781 -49.671875 87.75 -44.921875 C 91.445312 -40.171875 93.296875 -34.75 93.296875 -28.65625 C 93.296875 -19.851562 90.21875 -12.875 84.0625 -7.71875 C 77.914062 -2.570312 69.34375 0 58.34375 0 L 9.296875 0 L 9.296875 -105.296875 L 56.703125 -105.296875 C 67.398438 -105.296875 75.773438 -102.84375 81.828125 -97.9375 C 87.878906 -93.039062 90.90625 -86.394531 90.90625 -78 C 90.90625 -71.800781 89.28125 -66.648438 86.03125 -62.546875 C 82.78125 -58.453125 78.453125 -55.601562 73.046875 -54 Z M 34.953125 -62.703125 L 51.75 -62.703125 C 55.945312 -62.703125 59.171875 -63.625 61.421875 -65.46875 C 63.671875 -67.320312 64.796875 -70.050781 64.796875 -73.65625 C 64.796875 -77.25 63.671875 -79.992188 61.421875 -81.890625 C 59.171875 -83.796875 55.945312 -84.75 51.75 -84.75 L 34.953125 -84.75 Z M 53.84375 -20.703125 C 58.144531 -20.703125 61.46875 -21.675781 63.8125 -23.625 C 66.164062 -25.570312 67.34375 -28.394531 67.34375 -32.09375 C 67.34375 -35.800781 66.117188 -38.703125 63.671875 -40.796875 C 61.222656 -42.898438 57.847656 -43.953125 53.546875 -43.953125 L 34.953125 -43.953125 L 34.953125 -20.703125 Z M 53.84375 -20.703125 "/></g></g></g><g fill="#0d2634" fill-opacity="1"><g transform="translate(225.363283, 650.573195)"><g><path d="M 19.65625 0.34375 C 16.414062 0.34375 13.460938 -0.410156 10.796875 -1.921875 C 8.128906 -3.441406 6.019531 -5.554688 4.46875 -8.265625 C 2.925781 -10.984375 2.15625 -14.046875 2.15625 -17.453125 C 2.15625 -20.847656 2.925781 -23.90625 4.46875 -26.625 C 6.019531 -29.34375 8.128906 -31.457031 10.796875 -32.96875 C 13.460938 -34.488281 16.414062 -35.25 19.65625 -35.25 C 22.914062 -35.25 25.878906 -34.488281 28.546875 -32.96875 C 31.210938 -31.457031 33.3125 -29.347656 34.84375 -26.640625 C 36.382812 -23.941406 37.15625 -20.878906 37.15625 -17.453125 C 37.15625 -14.015625 36.382812 -10.945312 34.84375 -8.25 C 33.3125 -5.550781 31.210938 -3.441406 28.546875 -1.921875 C 25.878906 -0.410156 22.914062 0.34375 19.65625 0.34375 Z M 19.65625 -3.59375 C 22.082031 -3.59375 24.269531 -4.160156 26.21875 -5.296875 C 28.175781 -6.429688 29.710938 -8.046875 30.828125 -10.140625 C 31.941406 -12.242188 32.5 -14.679688 32.5 -17.453125 C 32.5 -20.253906 31.941406 -22.695312 30.828125 -24.78125 C 29.710938 -26.863281 28.1875 -28.46875 26.25 -29.59375 C 24.3125 -30.726562 22.113281 -31.296875 19.65625 -31.296875 C 17.1875 -31.296875 14.984375 -30.726562 13.046875 -29.59375 C 11.117188 -28.46875 9.59375 -26.863281 8.46875 -24.78125 C 7.351562 -22.695312 6.796875 -20.253906 6.796875 -17.453125 C 6.796875 -14.679688 7.351562 -12.242188 8.46875 -10.140625 C 9.59375 -8.046875 11.128906 -6.429688 13.078125 -5.296875 C 15.023438 -4.160156 17.21875 -3.59375 19.65625 -3.59375 Z M 19.65625 -3.59375 "/></g></g></g><g fill="#0d2634" fill-opacity="1"><g transform="translate(279.657199, 650.573195)"><g><path d="M 27.15625 -24.65625 C 27.15625 -21.75 26.160156 -19.335938 24.171875 -17.421875 C 22.191406 -15.503906 19.164062 -14.546875 15.09375 -14.546875 L 8.40625 -14.546875 L 8.40625 0 L 3.84375 0 L 3.84375 -34.84375 L 15.09375 -34.84375 C 19.03125 -34.84375 22.023438 -33.894531 24.078125 -32 C 26.128906 -30.101562 27.15625 -27.65625 27.15625 -24.65625 Z M 15.09375 -18.296875 C 17.632812 -18.296875 19.503906 -18.84375 20.703125 -19.9375 C 21.898438 -21.039062 22.5 -22.613281 22.5 -24.65625 C 22.5 -28.945312 20.03125 -31.09375 15.09375 -31.09375 L 8.40625 -31.09375 L 8.40625 -18.296875 Z M 15.09375 -18.296875 "/></g></g></g><g fill="#0d2634" fill-opacity="1"><g transform="translate(323.602716, 650.573195)"><g><path d="M 8.40625 -31.15625 L 8.40625 -19.5 L 21.09375 -19.5 L 21.09375 -15.75 L 8.40625 -15.75 L 8.40625 -3.75 L 22.59375 -3.75 L 22.59375 0 L 3.84375 0 L 3.84375 -34.90625 L 22.59375 -34.90625 L 22.59375 -31.15625 Z M 8.40625 -31.15625 "/></g></g></g><g fill="#0d2634" fill-opacity="1"><g transform="translate(364.24874, 650.573195)"><g><path d="M 31.25 0 L 26.703125 0 L 8.40625 -27.75 L 8.40625 0 L 3.84375 0 L 3.84375 -34.90625 L 8.40625 -34.90625 L 26.703125 -7.203125 L 26.703125 -34.90625 L 31.25 -34.90625 Z M 31.25 0 "/></g></g></g><g fill="#0d2634" fill-opacity="1"><g transform="translate(414.393303, 650.573195)"><g/></g></g><g fill="#0d2634" fill-opacity="1"><g transform="translate(442.741233, 650.573195)"><g><path d="M 14.90625 0.34375 C 12.601562 0.34375 10.539062 -0.0625 8.71875 -0.875 C 6.90625 -1.6875 5.484375 -2.816406 4.453125 -4.265625 C 3.421875 -5.722656 2.882812 -7.398438 2.84375 -9.296875 L 7.703125 -9.296875 C 7.867188 -7.660156 8.539062 -6.285156 9.71875 -5.171875 C 10.90625 -4.054688 12.632812 -3.5 14.90625 -3.5 C 17.070312 -3.5 18.78125 -4.039062 20.03125 -5.125 C 21.28125 -6.207031 21.90625 -7.597656 21.90625 -9.296875 C 21.90625 -10.628906 21.535156 -11.710938 20.796875 -12.546875 C 20.066406 -13.378906 19.148438 -14.007812 18.046875 -14.4375 C 16.953125 -14.875 15.46875 -15.34375 13.59375 -15.84375 C 11.300781 -16.445312 9.460938 -17.046875 8.078125 -17.640625 C 6.691406 -18.242188 5.503906 -19.1875 4.515625 -20.46875 C 3.535156 -21.757812 3.046875 -23.488281 3.046875 -25.65625 C 3.046875 -27.550781 3.53125 -29.234375 4.5 -30.703125 C 5.46875 -32.171875 6.828125 -33.300781 8.578125 -34.09375 C 10.328125 -34.894531 12.332031 -35.296875 14.59375 -35.296875 C 17.863281 -35.296875 20.539062 -34.476562 22.625 -32.84375 C 24.707031 -31.21875 25.882812 -29.050781 26.15625 -26.34375 L 21.15625 -26.34375 C 20.988281 -27.675781 20.285156 -28.851562 19.046875 -29.875 C 17.816406 -30.894531 16.1875 -31.40625 14.15625 -31.40625 C 12.25 -31.40625 10.695312 -30.910156 9.5 -29.921875 C 8.300781 -28.941406 7.703125 -27.566406 7.703125 -25.796875 C 7.703125 -24.535156 8.054688 -23.503906 8.765625 -22.703125 C 9.484375 -21.898438 10.367188 -21.289062 11.421875 -20.875 C 12.472656 -20.457031 13.945312 -19.984375 15.84375 -19.453125 C 18.144531 -18.816406 19.992188 -18.191406 21.390625 -17.578125 C 22.796875 -16.960938 24 -16.007812 25 -14.71875 C 26 -13.4375 26.5 -11.695312 26.5 -9.5 C 26.5 -7.800781 26.046875 -6.203125 25.140625 -4.703125 C 24.242188 -3.203125 22.910156 -1.984375 21.140625 -1.046875 C 19.378906 -0.117188 17.300781 0.34375 14.90625 0.34375 Z M 14.90625 0.34375 "/></g></g></g><g fill="#0d2634" fill-opacity="1"><g transform="translate(487.086674, 650.573195)"><g><path d="M 25.296875 -34.84375 L 25.296875 -31.15625 L 15.796875 -31.15625 L 15.796875 0 L 11.25 0 L 11.25 -31.15625 L 1.703125 -31.15625 L 1.703125 -34.84375 Z M 25.296875 -34.84375 "/></g></g></g><g fill="#0d2634" fill-opacity="1"><g transform="translate(529.132494, 650.573195)"><g><path d="M 24.453125 -7.75 L 9.25 -7.75 L 6.453125 0 L 1.65625 0 L 14.25 -34.65625 L 19.5 -34.65625 L 32.046875 0 L 27.25 0 Z M 23.15625 -11.453125 L 16.84375 -29.046875 L 10.546875 -11.453125 Z M 23.15625 -11.453125 "/></g></g></g><g fill="#0d2634" fill-opacity="1"><g transform="translate(577.827285, 650.573195)"><g><path d="M 25.296875 -34.84375 L 25.296875 -31.15625 L 15.796875 -31.15625 L 15.796875 0 L 11.25 0 L 11.25 -31.15625 L 1.703125 -31.15625 L 1.703125 -34.84375 Z M 25.296875 -34.84375 "/></g></g></g><g fill="#0d2634" fill-opacity="1"><g transform="translate(619.873059, 650.573195)"><g><path d="M 8.40625 -34.84375 L 8.40625 0 L 3.84375 0 L 3.84375 -34.84375 Z M 8.40625 -34.84375 "/></g></g></g><g fill="#0d2634" fill-opacity="1"><g transform="translate(647.171154, 650.573195)"><g><path d="M 14.90625 0.34375 C 12.601562 0.34375 10.539062 -0.0625 8.71875 -0.875 C 6.90625 -1.6875 5.484375 -2.816406 4.453125 -4.265625 C 3.421875 -5.722656 2.882812 -7.398438 2.84375 -9.296875 L 7.703125 -9.296875 C 7.867188 -7.660156 8.539062 -6.285156 9.71875 -5.171875 C 10.90625 -4.054688 12.632812 -3.5 14.90625 -3.5 C 17.070312 -3.5 18.78125 -4.039062 20.03125 -5.125 C 21.28125 -6.207031 21.90625 -7.597656 21.90625 -9.296875 C 21.90625 -10.628906 21.535156 -11.710938 20.796875 -12.546875 C 20.066406 -13.378906 19.148438 -14.007812 18.046875 -14.4375 C 16.953125 -14.875 15.46875 -15.34375 13.59375 -15.84375 C 11.300781 -16.445312 9.460938 -17.046875 8.078125 -17.640625 C 6.691406 -18.242188 5.503906 -19.1875 4.515625 -20.46875 C 3.535156 -21.757812 3.046875 -23.488281 3.046875 -25.65625 C 3.046875 -27.550781 3.53125 -29.234375 4.5 -30.703125 C 5.46875 -32.171875 6.828125 -33.300781 8.578125 -34.09375 C 10.328125 -34.894531 12.332031 -35.296875 14.59375 -35.296875 C 17.863281 -35.296875 20.539062 -34.476562 22.625 -32.84375 C 24.707031 -31.21875 25.882812 -29.050781 26.15625 -26.34375 L 21.15625 -26.34375 C 20.988281 -27.675781 20.285156 -28.851562 19.046875 -29.875 C 17.816406 -30.894531 16.1875 -31.40625 14.15625 -31.40625 C 12.25 -31.40625 10.695312 -30.910156 9.5 -29.921875 C 8.300781 -28.941406 7.703125 -27.566406 7.703125 -25.796875 C 7.703125 -24.535156 8.054688 -23.503906 8.765625 -22.703125 C 9.484375 -21.898438 10.367188 -21.289062 11.421875 -20.875 C 12.472656 -20.457031 13.945312 -19.984375 15.84375 -19.453125 C 18.144531 -18.816406 19.992188 -18.191406 21.390625 -17.578125 C 22.796875 -16.960938 24 -16.007812 25 -14.71875 C 26 -13.4375 26.5 -11.695312 26.5 -9.5 C 26.5 -7.800781 26.046875 -6.203125 25.140625 -4.703125 C 24.242188 -3.203125 22.910156 -1.984375 21.140625 -1.046875 C 19.378906 -0.117188 17.300781 0.34375 14.90625 0.34375 Z M 14.90625 0.34375 "/></g></g></g><g fill="#0d2634" fill-opacity="1"><g transform="translate(691.516641, 650.573195)"><g><path d="M 25.296875 -34.84375 L 25.296875 -31.15625 L 15.796875 -31.15625 L 15.796875 0 L 11.25 0 L 11.25 -31.15625 L 1.703125 -31.15625 L 1.703125 -34.84375 Z M 25.296875 -34.84375 "/></g></g></g><g fill="#0d2634" fill-opacity="1"><g transform="translate(733.562415, 650.573195)"><g><path d="M 8.40625 -34.84375 L 8.40625 0 L 3.84375 0 L 3.84375 -34.84375 Z M 8.40625 -34.84375 "/></g></g></g><g fill="#0d2634" fill-opacity="1"><g transform="translate(760.860509, 650.573195)"><g><path d="M 2.15625 -17.453125 C 2.15625 -20.847656 2.921875 -23.90625 4.453125 -26.625 C 5.984375 -29.34375 8.070312 -31.46875 10.71875 -33 C 13.375 -34.53125 16.316406 -35.296875 19.546875 -35.296875 C 23.347656 -35.296875 26.664062 -34.378906 29.5 -32.546875 C 32.332031 -30.710938 34.398438 -28.113281 35.703125 -24.75 L 30.25 -24.75 C 29.28125 -26.851562 27.882812 -28.46875 26.0625 -29.59375 C 24.25 -30.726562 22.078125 -31.296875 19.546875 -31.296875 C 17.117188 -31.296875 14.9375 -30.726562 13 -29.59375 C 11.0625 -28.46875 9.539062 -26.863281 8.4375 -24.78125 C 7.34375 -22.695312 6.796875 -20.253906 6.796875 -17.453125 C 6.796875 -14.679688 7.34375 -12.253906 8.4375 -10.171875 C 9.539062 -8.085938 11.0625 -6.476562 13 -5.34375 C 14.9375 -4.21875 17.117188 -3.65625 19.546875 -3.65625 C 22.078125 -3.65625 24.25 -4.210938 26.0625 -5.328125 C 27.882812 -6.441406 29.28125 -8.050781 30.25 -10.15625 L 35.703125 -10.15625 C 34.398438 -6.820312 32.332031 -4.242188 29.5 -2.421875 C 26.664062 -0.609375 23.347656 0.296875 19.546875 0.296875 C 16.316406 0.296875 13.375 -0.457031 10.71875 -1.96875 C 8.070312 -3.488281 5.984375 -5.597656 4.453125 -8.296875 C 2.921875 -10.992188 2.15625 -14.046875 2.15625 -17.453125 Z M 2.15625 -17.453125 "/></g></g></g><g fill="#0d2634" fill-opacity="1"><g transform="translate(814.454562, 650.573195)"><g><path d="M 24.453125 -7.75 L 9.25 -7.75 L 6.453125 0 L 1.65625 0 L 14.25 -34.65625 L 19.5 -34.65625 L 32.046875 0 L 27.25 0 Z M 23.15625 -11.453125 L 16.84375 -29.046875 L 10.546875 -11.453125 Z M 23.15625 -11.453125 "/></g></g></g><g fill="#0d2634" fill-opacity="1"><g transform="translate(863.149353, 650.573195)"><g><path d="M 8.40625 -3.703125 L 20.59375 -3.703125 L 20.59375 0 L 3.84375 0 L 3.84375 -34.84375 L 8.40625 -34.84375 Z M 8.40625 -3.703125 "/></g></g></g><g fill="#0d2634" fill-opacity="1"><g transform="translate(899.746, 650.573195)"><g/></g></g><g fill="#0d2634" fill-opacity="1"><g transform="translate(928.09393, 650.573195)"><g><path d="M 25.296875 -34.84375 L 25.296875 -31.15625 L 15.796875 -31.15625 L 15.796875 0 L 11.25 0 L 11.25 -31.15625 L 1.703125 -31.15625 L 1.703125 -34.84375 Z M 25.296875 -34.84375 "/></g></g></g><g fill="#0d2634" fill-opacity="1"><g transform="translate(970.13975, 650.573195)"><g><path d="M 19.65625 0.34375 C 16.414062 0.34375 13.460938 -0.410156 10.796875 -1.921875 C 8.128906 -3.441406 6.019531 -5.554688 4.46875 -8.265625 C 2.925781 -10.984375 2.15625 -14.046875 2.15625 -17.453125 C 2.15625 -20.847656 2.925781 -23.90625 4.46875 -26.625 C 6.019531 -29.34375 8.128906 -31.457031 10.796875 -32.96875 C 13.460938 -34.488281 16.414062 -35.25 19.65625 -35.25 C 22.914062 -35.25 25.878906 -34.488281 28.546875 -32.96875 C 31.210938 -31.457031 33.3125 -29.347656 34.84375 -26.640625 C 36.382812 -23.941406 37.15625 -20.878906 37.15625 -17.453125 C 37.15625 -14.015625 36.382812 -10.945312 34.84375 -8.25 C 33.3125 -5.550781 31.210938 -3.441406 28.546875 -1.921875 C 25.878906 -0.410156 22.914062 0.34375 19.65625 0.34375 Z M 19.65625 -3.59375 C 22.082031 -3.59375 24.269531 -4.160156 26.21875 -5.296875 C 28.175781 -6.429688 29.710938 -8.046875 30.828125 -10.140625 C 31.941406 -12.242188 32.5 -14.679688 32.5 -17.453125 C 32.5 -20.253906 31.941406 -22.695312 30.828125 -24.78125 C 29.710938 -26.863281 28.1875 -28.46875 26.25 -29.59375 C 24.3125 -30.726562 22.113281 -31.296875 19.65625 -31.296875 C 17.1875 -31.296875 14.984375 -30.726562 13.046875 -29.59375 C 11.117188 -28.46875 9.59375 -26.863281 8.46875 -24.78125 C 7.351562 -22.695312 6.796875 -20.253906 6.796875 -17.453125 C 6.796875 -14.679688 7.351562 -12.242188 8.46875 -10.140625 C 9.59375 -8.046875 11.128906 -6.429688 13.078125 -5.296875 C 15.023438 -4.160156 17.21875 -3.59375 19.65625 -3.59375 Z M 19.65625 -3.59375 "/></g></g></g><g fill="#0d2634" fill-opacity="1"><g transform="translate(1024.433677, 650.573195)"><g><path d="M 19.65625 0.34375 C 16.414062 0.34375 13.460938 -0.410156 10.796875 -1.921875 C 8.128906 -3.441406 6.019531 -5.554688 4.46875 -8.265625 C 2.925781 -10.984375 2.15625 -14.046875 2.15625 -17.453125 C 2.15625 -20.847656 2.925781 -23.90625 4.46875 -26.625 C 6.019531 -29.34375 8.128906 -31.457031 10.796875 -32.96875 C 13.460938 -34.488281 16.414062 -35.25 19.65625 -35.25 C 22.914062 -35.25 25.878906 -34.488281 28.546875 -32.96875 C 31.210938 -31.457031 33.3125 -29.347656 34.84375 -26.640625 C 36.382812 -23.941406 37.15625 -20.878906 37.15625 -17.453125 C 37.15625 -14.015625 36.382812 -10.945312 34.84375 -8.25 C 33.3125 -5.550781 31.210938 -3.441406 28.546875 -1.921875 C 25.878906 -0.410156 22.914062 0.34375 19.65625 0.34375 Z M 19.65625 -3.59375 C 22.082031 -3.59375 24.269531 -4.160156 26.21875 -5.296875 C 28.175781 -6.429688 29.710938 -8.046875 30.828125 -10.140625 C 31.941406 -12.242188 32.5 -14.679688 32.5 -17.453125 C 32.5 -20.253906 31.941406 -22.695312 30.828125 -24.78125 C 29.710938 -26.863281 28.1875 -28.46875 26.25 -29.59375 C 24.3125 -30.726562 22.113281 -31.296875 19.65625 -31.296875 C 17.1875 -31.296875 14.984375 -30.726562 13.046875 -29.59375 C 11.117188 -28.46875 9.59375 -26.863281 8.46875 -24.78125 C 7.351562 -22.695312 6.796875 -20.253906 6.796875 -17.453125 C 6.796875 -14.679688 7.351562 -12.242188 8.46875 -10.140625 C 9.59375 -8.046875 11.128906 -6.429688 13.078125 -5.296875 C 15.023438 -4.160156 17.21875 -3.59375 19.65625 -3.59375 Z M 19.65625 -3.59375 "/></g></g></g><g fill="#0d2634" fill-opacity="1"><g transform="translate(1078.727559, 650.573195)"><g><path d="M 8.40625 -3.703125 L 20.59375 -3.703125 L 20.59375 0 L 3.84375 0 L 3.84375 -34.84375 L 8.40625 -34.84375 Z M 8.40625 -3.703125 "/></g></g></g><g fill="#0d2634" fill-opacity="1"><g transform="translate(1115.324206, 650.573195)"><g><path d="M 22.75 0 L 8.40625 -15.90625 L 8.40625 0 L 3.84375 0 L 3.84375 -34.84375 L 8.40625 -34.84375 L 8.40625 -18.703125 L 22.796875 -34.84375 L 28.546875 -34.84375 L 12.75 -17.40625 L 28.703125 0 Z M 22.75 0 "/></g></g></g><g fill="#0d2634" fill-opacity="1"><g transform="translate(1160.269547, 650.573195)"><g><path d="M 8.40625 -34.84375 L 8.40625 0 L 3.84375 0 L 3.84375 -34.84375 Z M 8.40625 -34.84375 "/></g></g></g><g fill="#0d2634" fill-opacity="1"><g transform="translate(1187.567641, 650.573195)"><g><path d="M 25.296875 -34.84375 L 25.296875 -31.15625 L 15.796875 -31.15625 L 15.796875 0 L 11.25 0 L 11.25 -31.15625 L 1.703125 -31.15625 L 1.703125 -34.84375 Z M 25.296875 -34.84375 "/></g></g></g><g clip-path="url(#86def2aaaa)"><path fill="#1f77b4" d="M 658.304688 278.742188 C 658.304688 270.777344 664.855469 264.714844 672.773438 264.714844 C 680.691406 264.714844 687.242188 270.777344 687.242188 278.742188 L 687.242188 371.726562 C 687.242188 379.695312 680.695312 386.195312 672.773438 386.195312 C 664.855469 386.195312 658.304688 379.644531 658.304688 371.726562 Z M 606.4375 303.527344 C 606.4375 295.5625 612.988281 289.058594 620.90625 289.058594 C 628.824219 289.058594 634.9375 295.609375 634.9375 303.527344 L 634.9375 371.773438 C 634.9375 379.742188 628.875 386.246094 620.90625 386.246094 C 612.9375 386.246094 606.4375 379.695312 606.4375 371.773438 Z M 658.304688 228.734375 C 658.304688 236.703125 664.855469 243.203125 672.773438 243.203125 C 680.691406 243.203125 687.242188 236.652344 687.242188 228.734375 C 687.242188 228.246094 687.242188 228.246094 687.242188 228.246094 L 711.539062 216.5625 C 708.753906 213.773438 706.847656 210.5 706.40625 206.296875 L 682.109375 217.980469 C 679.765625 215.632812 676.488281 214.261719 672.773438 214.261719 C 664.855469 214.261719 658.304688 220.8125 658.304688 228.734375 Z M 710.660156 203.996094 C 710.660156 211.964844 717.210938 218.46875 725.128906 218.46875 C 733.050781 218.46875 739.601562 211.917969 739.601562 203.996094 C 739.601562 196.078125 733.050781 189.96875 725.128906 189.96875 C 717.210938 189.96875 710.660156 196.027344 710.660156 203.996094 Z M 620.90625 267.550781 C 628.386719 267.550781 634.9375 261 634.9375 253.078125 L 634.9375 252.589844 L 659.234375 241.394531 C 656.445312 238.609375 655.027344 234.84375 654.539062 231.128906 L 630.242188 242.324219 C 627.457031 239.976562 624.179688 238.609375 620.90625 238.609375 C 612.988281 238.558594 606.4375 245.109375 606.4375 253.03125 C 606.4375 260.949219 612.988281 267.550781 620.90625 267.550781 Z M 620.464844 170.316406 C 612.988281 170.316406 606.4375 163.765625 606.4375 155.84375 C 606.4375 147.925781 612.988281 141.816406 620.464844 141.816406 L 740.578125 141.816406 C 766.292969 141.816406 789.660156 152.082031 806.476562 168.898438 C 823.292969 185.714844 833.558594 209.082031 833.558594 234.796875 C 833.558594 260.019531 823.292969 283.386719 806.476562 300.203125 C 789.660156 317.023438 766.292969 327.289062 740.578125 327.289062 C 740.089844 327.289062 740.089844 327.289062 739.648438 327.289062 L 739.648438 371.675781 C 739.648438 379.644531 733.097656 386.148438 725.179688 386.148438 C 717.261719 386.148438 710.710938 379.597656 710.710938 371.675781 L 710.710938 254.351562 C 710.710938 246.382812 717.261719 239.878906 725.179688 239.878906 C 733.097656 239.878906 739.648438 246.429688 739.648438 254.351562 L 739.648438 298.738281 C 740.140625 298.738281 740.140625 298.738281 740.578125 298.738281 C 758.324219 298.738281 774.699219 291.257812 785.894531 280.0625 C 797.578125 268.378906 805.058594 252.003906 805.058594 234.746094 C 805.058594 217 797.578125 200.625 785.894531 189.429688 C 774.699219 177.746094 758.324219 170.265625 740.578125 170.265625 L 620.464844 170.265625 Z M 620.464844 170.316406 " fill-opacity="1" fill-rule="nonzero"/></g></svg>