<svg xmlns="http://www.w3.org/2000/svg" xmlns:xlink="http://www.w3.org/1999/xlink" width="500" zoomAndPan="magnify" viewBox="0 0 375 374.999991" height="500" preserveAspectRatio="xMidYMid meet" version="1.0"><defs><g/><clipPath id="06c4496d42"><path d="M 131.078125 91.863281 L 243.578125 91.863281 L 243.578125 213.363281 L 131.078125 213.363281 Z M 131.078125 91.863281 " clip-rule="nonzero"/></clipPath></defs><rect x="-37.5" width="450" fill="#ffffff" y="-37.499999" height="449.999989" fill-opacity="1"/><rect x="-37.5" width="450" fill="#f5f5f5" y="-37.499999" height="449.999989" fill-opacity="1"/><g fill="#333333" fill-opacity="1"><g transform="translate(77.039062, 285.232892)"><g><path d="M 35.8125 -28.5625 C 35.8125 -26.125 35.25 -23.894531 34.125 -21.875 C 33.007812 -19.851562 31.289062 -18.222656 28.96875 -16.984375 C 26.65625 -15.742188 23.78125 -15.125 20.34375 -15.125 L 13.984375 -15.125 L 13.984375 0 L 3.71875 0 L 3.71875 -42.125 L 20.34375 -42.125 C 23.695312 -42.125 26.535156 -41.539062 28.859375 -40.375 C 31.179688 -39.21875 32.921875 -37.617188 34.078125 -35.578125 C 35.234375 -33.535156 35.8125 -31.195312 35.8125 -28.5625 Z M 19.5625 -23.28125 C 21.519531 -23.28125 22.976562 -23.738281 23.9375 -24.65625 C 24.894531 -25.582031 25.375 -26.882812 25.375 -28.5625 C 25.375 -30.238281 24.894531 -31.535156 23.9375 -32.453125 C 22.976562 -33.378906 21.519531 -33.84375 19.5625 -33.84375 L 13.984375 -33.84375 L 13.984375 -23.28125 Z M 19.5625 -23.28125 "/></g></g></g><g fill="#333333" fill-opacity="1"><g transform="translate(120.479023, 285.232892)"><g><path d="M 39.84375 -42.125 L 25.265625 -13.921875 L 25.265625 0 L 15 0 L 15 -13.921875 L 0.421875 -42.125 L 12.0625 -42.125 L 20.21875 -24.484375 L 28.3125 -42.125 Z M 39.84375 -42.125 "/></g></g></g><g fill="#333333" fill-opacity="1"><g transform="translate(166.73898, 285.232892)"><g><path d="M 34.015625 -42.125 L 34.015625 -33.90625 L 22.859375 -33.90625 L 22.859375 0 L 12.59375 0 L 12.59375 -33.90625 L 1.4375 -33.90625 L 1.4375 -42.125 Z M 34.015625 -42.125 "/></g></g></g><g fill="#333333" fill-opacity="1"><g transform="translate(208.198942, 285.232892)"><g><path d="M 29.9375 -7.4375 L 14.21875 -7.4375 L 11.703125 0 L 0.953125 0 L 16.203125 -42.125 L 28.078125 -42.125 L 43.3125 0 L 32.453125 0 Z M 27.296875 -15.359375 L 22.078125 -30.78125 L 16.921875 -15.359375 Z M 27.296875 -15.359375 "/></g></g></g><g fill="#333333" fill-opacity="1"><g transform="translate(258.418899, 285.232892)"><g><path d="M 29.21875 -21.59375 C 31.65625 -21.070312 33.613281 -19.863281 35.09375 -17.96875 C 36.570312 -16.070312 37.3125 -13.898438 37.3125 -11.453125 C 37.3125 -7.941406 36.082031 -5.15625 33.625 -3.09375 C 31.164062 -1.03125 27.738281 0 23.34375 0 L 3.71875 0 L 3.71875 -42.125 L 22.6875 -42.125 C 26.957031 -42.125 30.300781 -41.140625 32.71875 -39.171875 C 35.144531 -37.210938 36.359375 -34.554688 36.359375 -31.203125 C 36.359375 -28.722656 35.707031 -26.660156 34.40625 -25.015625 C 33.101562 -23.378906 31.375 -22.238281 29.21875 -21.59375 Z M 13.984375 -25.078125 L 20.703125 -25.078125 C 22.378906 -25.078125 23.664062 -25.445312 24.5625 -26.1875 C 25.46875 -26.925781 25.921875 -28.015625 25.921875 -29.453125 C 25.921875 -30.898438 25.46875 -32.003906 24.5625 -32.765625 C 23.664062 -33.523438 22.378906 -33.90625 20.703125 -33.90625 L 13.984375 -33.90625 Z M 21.546875 -8.28125 C 23.265625 -8.28125 24.59375 -8.671875 25.53125 -9.453125 C 26.46875 -10.234375 26.9375 -11.363281 26.9375 -12.84375 C 26.9375 -14.320312 26.445312 -15.476562 25.46875 -16.3125 C 24.488281 -17.15625 23.140625 -17.578125 21.421875 -17.578125 L 13.984375 -17.578125 L 13.984375 -8.28125 Z M 21.546875 -8.28125 "/></g></g></g><g clip-path="url(#06c4496d42)"><path fill="#1f77b4" d="M 156.871094 159.835938 C 156.871094 155.878906 160.125 152.871094 164.054688 152.871094 C 167.984375 152.871094 171.238281 155.878906 171.238281 159.835938 L 171.238281 205.992188 C 171.238281 209.949219 167.984375 213.175781 164.054688 213.175781 C 160.125 213.175781 156.871094 209.921875 156.871094 205.992188 Z M 131.125 172.140625 C 131.125 168.183594 134.375 164.957031 138.308594 164.957031 C 142.238281 164.957031 145.273438 168.207031 145.273438 172.140625 L 145.273438 206.015625 C 145.273438 209.972656 142.261719 213.199219 138.308594 213.199219 C 134.351562 213.199219 131.125 209.949219 131.125 206.015625 Z M 156.871094 135.011719 C 156.871094 138.964844 160.125 142.191406 164.054688 142.191406 C 167.984375 142.191406 171.238281 138.941406 171.238281 135.011719 C 171.238281 134.769531 171.238281 134.769531 171.238281 134.769531 L 183.296875 128.96875 C 181.914062 127.585938 180.96875 125.957031 180.75 123.871094 L 168.691406 129.671875 C 167.523438 128.507812 165.898438 127.828125 164.054688 127.828125 C 160.125 127.828125 156.871094 131.078125 156.871094 135.011719 Z M 182.863281 122.730469 C 182.863281 126.6875 186.113281 129.914062 190.046875 129.914062 C 193.976562 129.914062 197.226562 126.664062 197.226562 122.730469 C 197.226562 118.800781 193.976562 115.765625 190.046875 115.765625 C 186.113281 115.765625 182.863281 118.777344 182.863281 122.730469 Z M 138.308594 154.277344 C 142.019531 154.277344 145.273438 151.027344 145.273438 147.09375 L 145.273438 146.851562 L 157.332031 141.296875 C 155.949219 139.914062 155.246094 138.042969 155.003906 136.199219 L 142.941406 141.757812 C 141.558594 140.589844 139.933594 139.914062 138.308594 139.914062 C 134.375 139.886719 131.125 143.140625 131.125 147.070312 C 131.125 151.003906 134.375 154.277344 138.308594 154.277344 Z M 138.089844 106.011719 C 134.375 106.011719 131.125 102.757812 131.125 98.828125 C 131.125 94.898438 134.375 91.863281 138.089844 91.863281 L 197.714844 91.863281 C 210.476562 91.863281 222.078125 96.960938 230.425781 105.308594 C 238.773438 113.65625 243.871094 125.253906 243.871094 138.019531 C 243.871094 150.542969 238.773438 162.140625 230.425781 170.488281 C 222.078125 178.835938 210.476562 183.933594 197.714844 183.933594 C 197.472656 183.933594 197.472656 183.933594 197.253906 183.933594 L 197.253906 205.96875 C 197.253906 209.921875 194 213.152344 190.070312 213.152344 C 186.136719 213.152344 182.886719 209.898438 182.886719 205.96875 L 182.886719 147.726562 C 182.886719 143.769531 186.136719 140.542969 190.070312 140.542969 C 194 140.542969 197.253906 143.796875 197.253906 147.726562 L 197.253906 169.761719 C 197.496094 169.761719 197.496094 169.761719 197.714844 169.761719 C 206.523438 169.761719 214.652344 166.046875 220.210938 160.492188 C 226.007812 154.691406 229.722656 146.5625 229.722656 137.996094 C 229.722656 129.1875 226.007812 121.054688 220.210938 115.5 C 214.652344 109.699219 206.523438 105.988281 197.714844 105.988281 L 138.089844 105.988281 Z M 138.089844 106.011719 " fill-opacity="1" fill-rule="nonzero"/></g></svg>